<?xml version="1.0" standalone="no"?><!DOCTYPE svg PUBLIC "-//W3C//DTD SVG 1.1//EN" "http://www.w3.org/Graphics/SVG/1.1/DTD/svg11.dtd"><svg t="1744023620637" class="icon" viewBox="0 0 1104 1024" version="1.1" xmlns="http://www.w3.org/2000/svg" p-id="37440" xmlns:xlink="http://www.w3.org/1999/xlink" width="69" height="64"><path d="M1039.75008406 32H59.91881563A27.91881562 27.91881562 0 0 0 32 59.91881563v145.46015531a27.91881562 27.91881562 0 0 0 27.91881562 27.91881656h73.22759532v497.36682188h291.82278375V233.30935719h249.73051125v499.53044437H966.52248969V233.30935719h73.22759437a27.91881562 27.91881562 0 0 0 27.91881656-27.93038625V59.91881563A27.91881562 27.91881562 0 0 0 1039.75008406 32zM1038.29224344 889.175915l-243.760305-102.83565563 28.93699125 68.12515032h-547.26895875l28.93699125-68.12515031-243.760305 102.83565562 243.760305 102.824085-28.93699125-68.11358063h547.26895875l-28.93699125 68.11358063 243.760305-102.824085z" p-id="37441" fill="#13227a"></path></svg>