<?xml version="1.0" standalone="no"?><!DOCTYPE svg PUBLIC "-//W3C//DTD SVG 1.1//EN" "http://www.w3.org/Graphics/SVG/1.1/DTD/svg11.dtd"><svg t="1744023540043" class="icon" viewBox="0 0 1069 1024" version="1.1" xmlns="http://www.w3.org/2000/svg" p-id="33519" xmlns:xlink="http://www.w3.org/1999/xlink" width="66.8125" height="64"><path d="M874.918 495.435c0 195.765-158.118 353.883-353.883 353.883S167.153 691.2 167.153 495.435 325.27 141.553 521.035 141.553c194.26 0 353.883 159.623 353.883 353.882z" fill="#E9EAEB" p-id="33520"></path><path d="M984.847 495.435c-19.576 79.812-213.835 137.036-450.259 137.036S103.906 575.247 84.33 495.435c-1.505 6.024-1.505 10.541-1.505 16.565 0 108.424 201.788 197.27 451.764 197.27S986.353 621.93 986.353 512c0-6.024 0-12.047-1.506-16.565z" fill="#A3D4FF" p-id="33521"></path><path d="M534.588 647.53c-206.306 0-439.717-46.683-465.317-149.083l28.611-7.53c15.06 61.742 182.212 126.495 435.2 126.495s420.142-64.753 435.2-126.494l28.612 7.53c-22.588 102.4-256 149.081-462.306 149.081zM290.635 432.187l-22.588-21.082 48.188-48.188-48.188-48.189 22.588-21.082 69.27 69.27z" fill="#2A5082" p-id="33522"></path><path d="M534.588 722.824c-262.023 0-466.823-93.365-466.823-212.33 0-79.812 94.87-149.082 224.376-165.647h46.683v30.118h-43.671c-112.941 13.553-197.27 72.282-197.27 135.53 0 97.881 200.282 182.21 436.705 182.21s436.706-82.823 436.706-182.21c0-58.73-75.294-117.46-195.765-150.59l7.53-28.61c137.035 37.646 218.353 105.41 218.353 179.2 0 120.47-204.8 212.329-466.824 212.329z" fill="#2A5082" p-id="33523"></path><path d="M474.353 512c0-224.376 46.682-411.106 106.918-445.741-7.53-4.518-16.565-6.024-25.6-6.024-87.342 0-156.612 201.789-156.612 451.765s70.776 451.765 156.612 451.765c9.035 0 16.564-1.506 25.6-6.024C521.035 924.611 474.353 737.882 474.353 512z" fill="#A3D4FF" p-id="33524"></path><path d="M715.294 578.259l-70.776-70.777L665.6 486.4l49.694 49.694 49.694-49.694 21.083 21.082zM573.741 971.294C507.482 933.647 459.294 740.894 459.294 512c0-227.388 48.188-421.647 114.447-459.294l15.059 25.6c-48.188 28.612-99.388 197.27-99.388 433.694s51.2 405.082 99.388 433.694l-15.059 25.6z" fill="#2A5082" p-id="33525"></path><path d="M555.67 978.824C447.248 978.824 384 740.894 384 512S448.753 45.176 555.67 45.176c97.883 0 174.683 204.8 174.683 466.824v30.118h-30.118V512c0-257.506-75.294-436.706-144.564-436.706-67.765 0-141.553 179.2-141.553 436.706s75.294 436.706 141.553 436.706c49.694 0 96.376-81.318 120.47-213.835l30.118 6.023c-28.612 150.588-82.824 237.93-150.588 237.93z" fill="#2A5082" p-id="33526"></path></svg>