<?xml version="1.0" standalone="no"?><!DOCTYPE svg PUBLIC "-//W3C//DTD SVG 1.1//EN" "http://www.w3.org/Graphics/SVG/1.1/DTD/svg11.dtd"><svg t="1744023182900" class="icon" viewBox="0 0 1024 1024" version="1.1" xmlns="http://www.w3.org/2000/svg" p-id="17957" xmlns:xlink="http://www.w3.org/1999/xlink" width="64" height="64"><path d="M749 608a26.22 26.22 0 0 1-12.45-3.13l-57.35-30.66a26.44 26.44 0 1 1 24.93-46.64l57.35 30.66A26.45 26.45 0 0 1 749 608zM391.54 802.46a26.3 26.3 0 0 1-12.44-3.13L178.47 692.06c-24.15-12.91-39.59-36.62-40.31-61.87a60.38 60.38 0 0 1 29.28-53.78L426.5 418.54A26.44 26.44 0 0 1 454 463.7L195 621.57a7.31 7.31 0 0 0-4 7.13c0.14 4.73 3.46 12 12.38 16.72L404 752.68a26.45 26.45 0 0 1-12.49 49.78z" fill="#303030" p-id="17958"></path><path d="M374.38 618.55L112.87 478.73c-30.34-16.22-35.56-53.9-9.66-69.71L362 251c13.19-8.06 31.29-7.93 46.75 0.34l261.52 139.83c30.34 16.22 35.56 53.91 9.66 69.72l-258.8 158c-13.2 8.05-31.29 7.92-46.75-0.34z" fill="#279ACC" p-id="17959"></path><path d="M477.56 572.9a78.88 78.88 0 0 1-37.1-9.44l-262-140.07c-24.15-12.91-39.59-36.62-40.31-61.87a60.38 60.38 0 0 1 29.28-53.78L426.5 149.87c21.25-13 49.24-13.1 73-0.36l262 140.06c24.16 12.91 39.6 36.62 40.31 61.87a60.36 60.36 0 0 1-29.27 53.78L513.5 563.09a68.91 68.91 0 0 1-35.94 9.81z m-15.19-380A16.05 16.05 0 0 0 454 195L195 352.9a7.31 7.31 0 0 0-4 7.1c0.14 4.73 3.46 12 12.38 16.72l262 140.07c7.14 3.82 15.42 4.26 20.59 1.11L745 360.06a7.3 7.3 0 0 0 3.93-7.12c-0.13-4.74-3.46-12-12.37-16.73l-262-140.07a26.46 26.46 0 0 0-12.19-3.2z" fill="#303030" p-id="17960"></path><path d="M477.56 700.28a78.89 78.89 0 0 1-37.1-9.45l-262-140.06c-24.15-12.92-39.59-36.62-40.31-61.87a60.36 60.36 0 0 1 29.29-53.78L426.5 277.24c21.25-12.95 49.24-13.09 73-0.36L761.52 417c24.15 12.91 39.6 36.61 40.31 61.86a60.38 60.38 0 0 1-29.27 53.79L513.5 690.47a68.91 68.91 0 0 1-35.94 9.81z m-15.19-380a16.05 16.05 0 0 0-8.35 2.09L195 480.28a7.31 7.31 0 0 0-4 7.12c0.14 4.74 3.46 12 12.38 16.73l262 140.06c7.14 3.81 15.42 4.26 20.59 1.11L745 487.44a7.32 7.32 0 0 0 3.93-7.13c-0.13-4.73-3.46-11.95-12.37-16.72l-262-140.07a26.46 26.46 0 0 0-12.19-3.2z" fill="#303030" p-id="17961"></path><path d="M696.56 786.15m-84.38 0a84.38 84.38 0 1 0 168.76 0 84.38 84.38 0 1 0-168.76 0Z" fill="#279ACC" p-id="17962"></path><path d="M696.55 881.55a95.4 95.4 0 1 1 95.4-95.4 95.5 95.5 0 0 1-95.4 95.4z m0-137.91a42.51 42.51 0 1 0 42.51 42.51 42.56 42.56 0 0 0-42.51-42.51z" fill="#303030" p-id="17963"></path><path d="M699.36 925.2c-83 0-149.35-51.3-182.61-83.23a77.26 77.26 0 0 1 0-111.65c54.85-52.64 199.74-157.89 360.49 0.81a77.36 77.36 0 0 1 0 110C814 903.61 753.18 925.2 699.36 925.2z m-1.51-225.05c-57.26 0-106.86 32.22-144.47 68.33a24.35 24.35 0 0 0 0 35.33c66.23 63.6 169.74 115.19 286.69-0.3a24.46 24.46 0 0 0 0-34.75c-50.54-49.9-98.61-68.61-142.22-68.61z" fill="#303030" p-id="17964"></path></svg>